<?xml version="1.0" encoding="utf-8"?>
<!-- Generator: Adobe Illustrator 24.0.1, SVG Export Plug-In . SVG Version: 6.00 Build 0)  -->
<svg version="1.1" id="Layer_1" xmlns="http://www.w3.org/2000/svg" xmlns:xlink="http://www.w3.org/1999/xlink" x="0px" y="0px"
	 viewBox="0 0 151.22 150.41" style="enable-background:new 0 0 151.22 150.41;" xml:space="preserve">
<style type="text/css">
	.st0{fill:url(#SVGID_1_);}
	.st1{fill:url(#SVGID_2_);}
	.st2{fill:url(#SVGID_3_);}
	.st3{fill:url(#SVGID_4_);}
	.st4{fill:url(#SVGID_5_);}
	.st5{fill:url(#SVGID_6_);}
	.st6{fill:url(#SVGID_7_);}
	.st7{fill:url(#SVGID_8_);}
	.st8{opacity:0.5;fill:#FFFFFF;}
</style>
<g>
	<radialGradient id="SVGID_1_" cx="75.6786" cy="74.5751" r="71.7546" gradientUnits="userSpaceOnUse">
		<stop  offset="0.5041" style="stop-color:#D41180"/>
		<stop  offset="1" style="stop-color:#E80A89"/>
	</radialGradient>
	<path class="st0" d="M96.34,52.14c0,0,9.42-2.35,18.3-11.23s10.79-17.86,10.79-17.86C112.04,9.71,94.53,3.03,77.02,3.01
		c0,0,4.96,9.39,4.96,20.2s-5.04,21.03-5.04,21.03C84.39,44.51,91.17,47.45,96.34,52.14z"/>
	<radialGradient id="SVGID_2_" cx="75.3869" cy="75.3204" r="72.3053" gradientUnits="userSpaceOnUse">
		<stop  offset="0.5041" style="stop-color:#98448D"/>
		<stop  offset="1" style="stop-color:#A54B9B"/>
	</radialGradient>
	<path class="st1" d="M106.39,73.52c0,0,8.32,5,20.88,5s20.26-5,20.26-5c-0.03-18.89-7.69-36-20.06-48.39
		c0,0-3.13,10.15-10.77,17.79s-18.43,11.3-18.43,11.3C103.33,59.68,106.05,66.55,106.39,73.52z"/>
	<radialGradient id="SVGID_3_" cx="75.8869" cy="74.9084" r="71.5449" gradientUnits="userSpaceOnUse">
		<stop  offset="0.25" style="stop-color:#5D2C83"/>
		<stop  offset="1" style="stop-color:#652F8E"/>
	</radialGradient>
	<path class="st2" d="M98.33,95.82c0,0,2.35,9.42,11.23,18.3s17.86,10.79,17.86,10.79c13.34-13.38,20.02-30.89,20.04-48.41
		c0,0-9.39,4.96-20.2,4.96s-21.03-5.04-21.03-5.04C105.95,83.87,103.01,90.65,98.33,95.82z"/>
	<radialGradient id="SVGID_4_" cx="75.6951" cy="75.1895" r="72.2552" gradientUnits="userSpaceOnUse">
		<stop  offset="0.5" style="stop-color:#2D3C8E"/>
		<stop  offset="1" style="stop-color:#293881"/>
	</radialGradient>
	<path class="st3" d="M77,105.94c0,0-5,8.32-5,20.88s5,20.26,5,20.26c18.89-0.03,36-7.69,48.39-20.06c0,0-10.15-3.13-17.79-10.77
		S96.3,97.81,96.3,97.81C90.83,102.89,83.96,105.6,77,105.94z"/>
	<radialGradient id="SVGID_5_" cx="75.6782" cy="74.7386" r="72.5035" gradientUnits="userSpaceOnUse">
		<stop  offset="0.5" style="stop-color:#EA2127"/>
		<stop  offset="1" style="stop-color:#D62027"/>
	</radialGradient>
	<path class="st4" d="M54.77,97.93c0,0-9.42,2.35-18.3,11.23s-10.79,17.86-10.79,17.86c13.38,13.34,30.89,20.02,48.41,20.04
		c0,0-4.96-9.39-4.96-20.2s5.04-21.03,5.04-21.03C66.71,105.55,59.94,102.61,54.77,97.93z"/>
	<radialGradient id="SVGID_6_" cx="75.7043" cy="75.1583" r="72.297" gradientUnits="userSpaceOnUse">
		<stop  offset="0.25" style="stop-color:#DA5D26"/>
		<stop  offset="1" style="stop-color:#EF6623"/>
	</radialGradient>
	<path class="st5" d="M44.7,76.46c0,0-8.32-5-20.88-5s-20.26,5-20.26,5c0.03,18.89,7.69,36,20.06,48.39c0,0,3.13-10.15,10.77-17.79
		s18.43-11.3,18.43-11.3C47.76,90.3,45.04,83.43,44.7,76.46z"/>
	<radialGradient id="SVGID_7_" cx="75.6309" cy="75.1718" r="72.8179" gradientUnits="userSpaceOnUse">
		<stop  offset="0.25" style="stop-color:#E8C81C"/>
		<stop  offset="1" style="stop-color:#FDDC0D"/>
	</radialGradient>
	<path class="st6" d="M52.69,54.01c0,0-2.35-9.42-11.23-18.3S23.61,24.93,23.61,24.93C10.27,38.31,3.59,55.82,3.57,73.33
		c0,0,9.39-4.96,20.2-4.96s21.03,5.04,21.03,5.04C45.07,65.96,48,59.18,52.69,54.01z"/>
	<radialGradient id="SVGID_8_" cx="75.4612" cy="75.448" r="73.0274" gradientUnits="userSpaceOnUse">
		<stop  offset="0.5069" style="stop-color:#92BA3E"/>
		<stop  offset="1" style="stop-color:#A0CB3A"/>
	</radialGradient>
	<path class="st7" d="M74.16,43.95c0,0,5-8.32,5-20.88s-5-20.26-5-20.26c-18.89,0.03-36,7.69-48.39,20.06
		c0,0,10.15,3.13,17.79,10.77s11.3,18.43,11.3,18.43C60.32,47,67.19,44.29,74.16,43.95z"/>
	<path class="st8" d="M75.55,9.6c24.5,0,46.17,12.03,59.49,30.48C123,19.77,100.87,6.14,75.55,6.14S28.09,19.77,16.06,40.09
		C29.37,21.63,51.05,9.6,75.55,9.6z"/>
	<path class="st8" d="M75.55,109.32c-12.86,0-24.08-7.03-30.04-17.45c4.95,11.7,16.53,19.91,30.04,19.91
		c13.5,0,25.09-8.21,30.04-19.91C99.62,102.29,88.41,109.32,75.55,109.32z"/>
</g>
</svg>
