<svg width="332" height="76" viewBox="0 0 332 76" fill="none" xmlns="http://www.w3.org/2000/svg">
<g clip-path="url(#clip0)">
<path d="M84.4561 39.9048C84.4561 28.9686 93.2177 20.2521 104.141 20.2521C108.793 20.2521 112.74 21.1207 116.418 23.3913C117.448 24.0414 117.661 24.9608 117.068 26.0987L116.525 27.018C115.931 28.2117 115.013 28.3743 113.821 27.7241C109.605 25.4485 107.007 25.3977 104.141 25.3977C96.4596 25.3977 90.2955 31.7877 90.2955 39.854C90.2955 47.1076 95.1608 54.2037 104.897 54.2037C108.194 54.2037 111.01 53.391 113.552 51.7655V44.2377H105.008C103.765 44.2377 103.06 43.4808 103.06 42.2363V41.5862C103.06 40.3417 103.765 39.6356 105.008 39.6356H116.849C118.092 39.6356 118.798 40.3417 118.798 41.5862V52.5224C118.798 53.5535 118.366 54.4171 117.123 55.3923C112.796 58.5874 108.093 59.3442 104.633 59.3442C92.888 59.3442 84.4561 50.5719 84.4561 39.9048Z" fill="#652F8E"/>
<path d="M121.984 45.2688C121.984 37.3651 128.148 31.0258 136.585 31.0258C143.398 31.0258 149.618 35.0843 150.374 43.75C150.536 45.0504 149.781 45.7514 148.482 45.7514H127.498C127.336 50.7852 131.501 54.4679 137.396 54.4679C140.045 54.4679 142.424 53.7618 144.753 52.1922C145.783 51.542 146.645 51.5979 147.513 52.4614L147.893 52.8932C148.761 53.8126 148.761 54.9504 147.513 55.9816C144.377 58.5264 140.75 59.3391 137.346 59.3391C127.823 59.3442 121.984 53.01 121.984 45.2688ZM144.859 41.637C143.454 36.8165 139.669 35.7904 136.691 35.7904C133.556 35.7904 129.66 37.0349 127.985 41.637H144.859Z" fill="#652F8E"/>
<path d="M155.564 50.1401V35.9529H152.266C151.561 35.9529 151.186 35.5212 151.186 34.8151V32.702C151.186 31.996 151.566 31.6201 152.266 31.6201H155.676L156.65 25.3926C156.812 24.3665 157.406 23.823 158.38 23.823H159.516C160.546 23.823 161.14 24.4732 161.14 25.4993V31.615H168.547C169.252 31.615 169.627 31.996 169.627 32.697V34.8101C169.627 35.5161 169.247 35.9479 168.547 35.9479H161.14V50.4601C161.14 53.3859 162.545 54.5237 164.275 54.5237C165.949 54.5237 167.466 53.5485 167.466 51.5979C167.466 51.3795 167.466 51.0036 167.36 50.5668C167.253 49.8099 167.578 49.3223 168.334 49.3223H170.82C171.469 49.3223 171.956 49.5915 172.063 50.2976C172.281 51.2169 172.281 52.2481 172.281 52.2989C172.281 56.3625 169.359 59.3391 164.169 59.3391C159.836 59.3442 155.564 57.1244 155.564 50.1401Z" fill="#652F8E"/>
<path d="M174.143 40.5855C174.143 30.0251 181.768 21.0394 194.639 21.0394C199.342 21.0394 202.751 22.2331 205.674 24.1278C206.704 24.8338 206.917 25.6974 206.323 26.8352L205.836 27.7038C205.242 28.7857 204.319 29.0041 203.132 28.354C200.752 27.0536 197.617 26.1901 194.639 26.1901C185.34 26.1901 179.982 32.7935 179.982 40.5956C179.982 48.3927 185.335 54.9961 194.639 54.9961C197.612 54.9961 200.752 54.1275 203.132 52.8322C204.319 52.1821 205.242 52.4005 205.836 53.4824L206.323 54.351C206.917 55.4888 206.81 56.2457 205.998 56.84C203.025 58.8413 199.56 60.1417 194.639 60.1417C181.768 60.1315 174.143 51.1458 174.143 40.5855Z" fill="#652F8E"/>
<path d="M208.535 45.9495C208.535 38.1524 213.887 31.8182 221.949 31.8182C225.571 31.8182 229.087 33.0627 231.629 36.6895V34.3631C231.629 33.1186 232.385 32.4125 233.628 32.4125H235.251C236.494 32.4125 237.199 33.1186 237.199 34.3631V57.5918C237.199 58.8362 236.494 59.5423 235.251 59.5423H233.628C232.385 59.5423 231.629 58.8362 231.629 57.5918V55.2653C229.087 58.8921 225.571 60.1366 221.949 60.1366C213.887 60.1315 208.535 53.7466 208.535 45.9495ZM231.735 45.9495C231.68 40.5906 228.057 36.6387 222.705 36.6387C217.241 36.6387 214.106 40.9157 214.106 45.9495C214.106 51.0392 217.241 55.2603 222.705 55.2603C228.057 55.2603 231.68 51.3084 231.735 45.9495Z" fill="#652F8E"/>
<path d="M243.521 57.5867V34.358C243.521 33.1135 244.277 32.4074 245.52 32.4074H247.143C248.386 32.4074 249.091 33.1135 249.091 34.358V37.7155C250.278 33.9262 253.744 31.8131 258.122 31.8131C264.124 31.8131 268.507 35.7142 268.507 44.2123V57.5867C268.507 58.8312 267.751 59.5372 266.508 59.5372H264.885C263.642 59.5372 262.937 58.8312 262.937 57.5867V44.2681C262.937 38.6908 260.395 36.6895 257.528 36.6895C254.718 36.6895 249.091 38.5841 249.091 46.813V57.5867C249.091 58.8312 248.386 59.5372 247.143 59.5372H245.52C244.282 59.5372 243.521 58.8362 243.521 57.5867Z" fill="#652F8E"/>
<path d="M272.51 45.9495C272.51 38.1524 277.862 31.8182 285.924 31.8182C289.546 31.8182 293.062 33.0627 295.604 36.6895V22.3398C295.604 21.0953 296.36 20.3893 297.603 20.3893H299.226C300.469 20.3893 301.174 21.0953 301.174 22.3398V57.5867C301.174 58.8312 300.469 59.5372 299.226 59.5372H297.603C296.36 59.5372 295.604 58.8312 295.604 57.5867V55.2603C293.062 58.887 289.546 60.1315 285.924 60.1315C277.862 60.1315 272.51 53.7466 272.51 45.9495ZM295.71 45.9495C295.655 40.5906 292.032 36.6387 286.68 36.6387C281.216 36.6387 278.08 40.9157 278.08 45.9495C278.08 51.0392 281.216 55.2603 286.68 55.2603C292.032 55.2603 295.655 51.3084 295.71 45.9495Z" fill="#652F8E"/>
<path d="M311.605 69.3915L315.77 58.5061L305.385 34.6831C304.792 33.3268 305.441 32.4074 306.897 32.4074H309.058C310.195 32.4074 310.895 32.8951 311.275 33.9262L318.794 52.2837L325.714 33.9821C326.095 32.9001 326.906 32.4125 328.038 32.4125H330.255C331.716 32.4125 332.365 33.2811 331.772 34.6881L316.684 70.1535C316.252 71.2354 315.547 71.6722 314.411 71.6722H313.112C311.661 71.6672 311.067 70.7478 311.605 69.3915Z" fill="#652F8E"/>
<path d="M37.9537 0C16.9906 0 0 17.0114 0 38C0 58.9886 16.9906 76 37.9537 76C58.9168 76 75.9075 58.9886 75.9075 38C75.9075 17.0114 58.9168 0 37.9537 0ZM37.9588 52.3091C30.3183 52.3091 23.8244 45.9241 23.8244 38.0508C23.8244 30.1724 30.3183 23.8789 37.9588 23.8789C45.5993 23.8789 52.149 30.1724 52.149 38.0508C52.1439 45.9241 45.5993 52.3091 37.9588 52.3091Z" fill="white"/>
<path d="M48.5012 26.4949C48.5012 26.4949 53.2803 25.3012 57.7854 20.7905C62.2905 16.2799 63.2596 11.7185 63.2596 11.7185C56.4714 4.9424 47.588 1.55435 38.6995 1.54419C38.6995 1.54419 41.2158 6.31387 41.2158 11.8049C41.2158 17.2958 38.6589 22.482 38.6589 22.482C42.4436 22.6192 45.8833 24.1126 48.5012 26.4949Z" fill="url(#paint0_radial)"/>
<path d="M53.5999 37.3549C53.5999 37.3549 57.8209 39.8947 64.1931 39.8947C70.5652 39.8947 74.4717 37.3549 74.4717 37.3549C74.4564 27.7597 70.5703 19.0686 64.2945 12.775C64.2945 12.775 62.7066 17.9308 58.8305 21.8115C54.9545 25.6923 49.4803 27.5514 49.4803 27.5514C52.0525 30.3248 53.4274 33.8145 53.5999 37.3549Z" fill="url(#paint1_radial)"/>
<path d="M49.5108 48.6823C49.5108 48.6823 50.703 53.4672 55.2082 57.9778C59.7133 62.4884 64.2692 63.4586 64.2692 63.4586C71.037 56.6622 74.426 47.768 74.4362 38.8686C74.4362 38.8686 69.6723 41.3881 64.188 41.3881C58.7088 41.3881 53.5188 38.828 53.5188 38.828C53.3767 42.6122 51.8902 46.0561 49.5108 48.6823Z" fill="url(#paint2_radial)"/>
<path d="M38.6893 53.8228C38.6893 53.8228 36.1526 58.0489 36.1526 64.4288C36.1526 70.8087 38.6893 74.72 38.6893 74.72C48.2729 74.7047 56.9534 70.8138 63.2393 64.5304C63.2393 64.5304 58.0898 62.9405 54.2138 59.0598C50.3377 55.179 48.4809 49.6982 48.4809 49.6982C45.7108 52.2735 42.2254 53.6501 38.6893 53.8228Z" fill="url(#paint3_radial)"/>
<path d="M27.4163 49.7541C27.4163 49.7541 22.6372 50.9477 18.1321 55.4584C13.627 59.969 12.658 64.5304 12.658 64.5304C19.4461 71.3065 28.3295 74.6996 37.218 74.7098C37.218 74.7098 34.7017 69.9401 34.7017 64.4491C34.7017 58.9582 37.2586 53.7669 37.2586 53.7669C33.4739 53.6247 30.0342 52.1364 27.4163 49.7541Z" fill="url(#paint4_radial)"/>
<path d="M22.3075 38.8483C22.3075 38.8483 18.0865 36.3085 11.7143 36.3085C5.34221 36.3085 1.43573 38.8483 1.43573 38.8483C1.45095 48.4435 5.33714 57.1346 11.6129 63.4282C11.6129 63.4282 13.2008 58.2724 17.0769 54.3917C20.9529 50.5109 26.4271 48.6518 26.4271 48.6518C23.8549 45.8784 22.48 42.3887 22.3075 38.8483Z" fill="url(#paint5_radial)"/>
<path d="M26.3611 27.4498C26.3611 27.4498 25.1689 22.6649 20.6637 18.1543C16.1586 13.6436 11.6027 12.6734 11.6027 12.6734C4.83487 19.4699 1.44587 28.3641 1.4408 37.2635C1.4408 37.2635 6.20467 34.744 11.689 34.744C17.1733 34.744 22.3582 37.3041 22.3582 37.3041C22.4901 33.5148 23.9817 30.0709 26.3611 27.4498Z" fill="url(#paint6_radial)"/>
<path d="M37.2485 22.3347C37.2485 22.3347 39.7852 18.1086 39.7852 11.7287C39.7852 5.34876 37.2485 1.43752 37.2485 1.43752C27.6649 1.45275 18.9844 5.34368 12.6985 11.6271C12.6985 11.6271 17.848 13.217 21.724 17.0977C25.6001 20.9785 27.4569 26.4593 27.4569 26.4593C30.232 23.884 33.7174 22.5074 37.2485 22.3347Z" fill="url(#paint7_radial)"/>
<path opacity="0.5" d="M37.9537 4.88652C50.3834 4.88652 61.3773 10.9972 68.1351 20.3689C62.0267 10.0524 50.7994 3.12901 37.9537 3.12901C25.108 3.12901 13.8806 10.0524 7.7774 20.374C14.53 10.9972 25.524 4.88652 37.9537 4.88652Z" fill="white"/>
<path opacity="0.5" d="M37.9537 55.5396C31.4294 55.5396 25.7371 51.9687 22.7134 46.6758C25.2247 52.6189 31.0996 56.7892 37.9537 56.7892C44.8027 56.7892 50.6828 52.6189 53.1941 46.6758C50.1703 51.9738 44.478 55.5396 37.9537 55.5396Z" fill="white"/>
</g>
<defs>
<radialGradient id="paint0_radial" cx="0" cy="0" r="1" gradientUnits="userSpaceOnUse" gradientTransform="translate(38.0215 37.8916) scale(36.4036 36.448)">
<stop offset="0.5041" stop-color="#D60080"/>
<stop offset="1" stop-color="#EB008B"/>
</radialGradient>
<radialGradient id="paint1_radial" cx="0" cy="0" r="1" gradientUnits="userSpaceOnUse" gradientTransform="translate(37.8734 38.2701) scale(36.683 36.7277)">
<stop offset="0.5041" stop-color="#98448E"/>
<stop offset="1" stop-color="#A64B9B"/>
</radialGradient>
<radialGradient id="paint2_radial" cx="0" cy="0" r="1" gradientUnits="userSpaceOnUse" gradientTransform="translate(38.1271 38.0609) scale(36.2972 36.3415)">
<stop offset="0.25" stop-color="#5D2684"/>
<stop offset="1" stop-color="#652D90"/>
</radialGradient>
<radialGradient id="paint3_radial" cx="0" cy="0" r="1" gradientUnits="userSpaceOnUse" gradientTransform="translate(38.0298 38.2036) scale(36.6576 36.7023)">
<stop offset="0.5" stop-color="#2D3C8E"/>
<stop offset="1" stop-color="#293683"/>
</radialGradient>
<radialGradient id="paint4_radial" cx="0" cy="0" r="1" gradientUnits="userSpaceOnUse" gradientTransform="translate(38.0212 37.9746) scale(36.7836 36.8284)">
<stop offset="0.5" stop-color="#EC1C24"/>
<stop offset="1" stop-color="#D71921"/>
</radialGradient>
<radialGradient id="paint5_radial" cx="0" cy="0" r="1" gradientUnits="userSpaceOnUse" gradientTransform="translate(38.0345 38.1878) scale(36.6788 36.7235)">
<stop offset="0.25" stop-color="#DB5C1E"/>
<stop offset="1" stop-color="#F16522"/>
</radialGradient>
<radialGradient id="paint6_radial" cx="0" cy="0" r="1" gradientUnits="userSpaceOnUse" gradientTransform="translate(37.9973 38.1947) scale(36.9431 36.9881)">
<stop offset="0.25" stop-color="#EAC917"/>
<stop offset="1" stop-color="#FFDD15"/>
</radialGradient>
<radialGradient id="paint7_radial" cx="0" cy="0" r="1" gradientUnits="userSpaceOnUse" gradientTransform="translate(37.9112 38.3349) scale(37.0494 37.0945)">
<stop offset="0.5069" stop-color="#93BA34"/>
<stop offset="1" stop-color="#A2CC39"/>
</radialGradient>
<clipPath id="clip0">
<rect width="332" height="76" fill="white"/>
</clipPath>
</defs>
</svg>
